<svg xmlns="http://www.w3.org/2000/svg" viewBox="0 0 1140 1142.59"><title>Asset 3</title><g id="Layer_2" data-name="Layer 2"><g id="Layer_1-2" data-name="Layer 1"><path d="M163.65,721.59l50.46,42.26L619.74,169.42s34.2-111.15-47.29-149.58S449.06,75.73,449.06,75.73Z" fill="#ffeace" fill-rule="evenodd"/><path d="M232.64,776.13,281,830,793.34,334.31s49.44-111.49-23.16-164.84-139.56,44.29-139.56,44.29Z" fill="#ffeace" fill-rule="evenodd"/><path d="M306.58,856.51l44,44.47,598.88-407.7s79.52-67.15,16.41-131.45-146.34-6.47-146.34-6.47Z" fill="#ffeace" fill-rule="evenodd"/><path d="M372.13,925.65,421.08,977,1056.5,701s92-53.88,44.64-130.53S947.7,554.27,947.7,554.27Z" fill="#ffeace" fill-rule="evenodd"/><path d="M14.85,938.28c0-76.47,55.22-177.73,143.53-208.29,37.51,28.74,88.42,62.68,151.94,132.16,70.22,76.81,75.61,85.22,95.29,127-28.37,77.8-128,138.55-201.33,138.55A189.35,189.35,0,0,1,14.85,938.28Z" fill="#cc5c3a" fill-rule="evenodd"/><path d="M83.32,765.94a11.11,11.11,0,0,0-3.84,20.25c.44.28,7.36,4.88,10.24,6.86,8.22,5.67,17.34,12.28,27.22,19.55,28.23,20.78,56.43,43.34,82.74,67,10.82,9.75,21.15,19.5,30.83,29.21S250,929,259.83,940c23.57,26.38,46.1,54.78,66.79,83.08,7.25,9.91,13.79,19.11,19.44,27.35,2,2.88,6.58,9.8,6.86,10.24a11.19,11.19,0,0,0,18.74-12.22c-.34-.51-5.19-7.75-7.22-10.7-5.77-8.43-12.4-17.83-19.78-27.93-21.1-28.85-44.09-57.63-68.19-84.59-10.07-11.27-20.07-22-30.13-32.12s-20.54-20-31.66-30c-26.89-24.22-55.7-47.35-84.47-68.54-10.07-7.41-19.41-14.1-27.81-19.89-3-2-10.2-6.88-10.71-7.22A11,11,0,0,0,83.32,765.94Z" fill="#010101" fill-rule="evenodd"/><path d="M645.57,87.9c-4.93-33.84-23.05-60.83-56.43-76.57C571.42,3,554.32-.49,538.05.05c-27.11.89-51.92,13.1-73.77,33.39a168.24,168.24,0,0,0-19.9,22.11,117.76,117.76,0,0,0-7.21,10.59,14.69,14.69,0,0,0-.82,1.51C434.12,72.71,152.22,710.49,150,715.55a15,15,0,0,0,4.54,17.8L213.06,779a14.86,14.86,0,0,0,21.52-3.5l397.84-598.2a15.3,15.3,0,0,0,1.28-2.56c.48-1.16,1.27-3,2.21-5.71,1.53-4.35,3.13-9.34,4.54-14.66C646.32,132.25,648.72,109.59,645.57,87.9Zm-34,58.88c-1.21,4.54-2.44,8.69-3.72,12.33-.54,1.53-.86,2.26-1.17,3L218.76,745.57,182,717C193.12,691.76,460.27,87.28,463.23,80.57c.21-.34.38-.62.82-1.28,1.15-1.75,2.46-3.67,4.07-5.82a138.26,138.26,0,0,1,16.41-18.15C501.3,39.74,519.38,30.61,539.1,30c11.83-.39,24.31,2.23,37.35,8.38,23.85,11.24,36,29.46,39.56,53.88C618.51,109.33,616.52,128.25,611.59,146.78Z" fill="#010101" fill-rule="evenodd"/><path d="M837.22,219.27c-5.9-21-18.58-39.84-38.29-56-19.41-15.89-40-23.92-61.2-24.9a99.7,99.7,0,0,0-21.41,1.28c-22.22,3.79-43.3,14.56-63,30a210.89,210.89,0,0,0-22.8,21c-4.1,4.33-7.07,7.77-8.73,9.89L220.62,767.68a14.78,14.78,0,0,0,2.56,19.9l61.9,52.24a15.07,15.07,0,0,0,10.24,3.61,14.89,14.89,0,0,0,9.9-4.3l501-496.75a14,14,0,0,0,1.28-1.39c1.2-1.54,3.1-4.18,5.47-7.8a192.55,192.55,0,0,0,11.29-19.9C839.61,282.3,845.91,250.2,837.22,219.27Zm-39.57,80.87a161.73,161.73,0,0,1-9.54,16.76c-1.12,1.71-2.11,3.16-3,4.42l-.35.47L293.93,808.41l-41.08-34.68L645.34,218.92c.22-.28.78-1,1.62-2,1.49-1.75,3.23-3.7,5.24-5.82a182.29,182.29,0,0,1,19.67-18c18.47-14.54,36.82-23.27,54.92-24.9s35.88,3.9,53.29,18.15c15,12.31,24.18,26,28.4,41C814.84,249.93,810,275.13,797.65,300.14Z" fill="#010101" fill-rule="evenodd"/><path d="M1000.35,389.16c-4.6-13.51-12.49-26.25-23.85-37.82-13.85-14.11-29.42-23.67-46.31-29.09a111.91,111.91,0,0,0-23.62-4.89c-23.8-2.25-48,3-71.45,13.27a180.47,180.47,0,0,0-18.38,9.31c-3.36,2-5.78,3.53-7.22,4.53a16.91,16.91,0,0,0-1.74,1.4L296.37,830.4a14.91,14.91,0,0,0-.7,20.94l55.74,59.81a14.87,14.87,0,0,0,19.2,2.21L958,518.2a15,15,0,0,0,2.21-1.86c1.56-1.57,4.07-4.26,7.21-8a193.75,193.75,0,0,0,15.13-20.71C1002.92,455.4,1011.45,421.73,1000.35,389.16Zm-42.93,82.5a166.4,166.4,0,0,1-12.8,17.57c-1.51,1.8-3,3.31-4.19,4.65-.37.4-.47.46-.7.7L364.44,881.48l-36.88-39.56L827.21,368.56c.19-.12.17-.16.47-.35,1.13-.73,2.51-1.65,4.07-2.56A153.58,153.58,0,0,1,847.11,358c18.9-8.28,38-12.5,56.2-10.94a81.39,81.39,0,0,1,17.8,3.61c12.28,3.95,23.61,11,34.09,21.65,8.28,8.43,13.86,17.21,17,26.41C979.82,421.08,973.45,446.32,957.42,471.66Z" fill="#010101" fill-rule="evenodd"/><path d="M1125,554.51c-16.92-27.4-40.71-42.46-69-46.55a115.62,115.62,0,0,0-17.46-1.16c-17.57.15-35.5,4.06-53.06,10.59-6.16,2.28-11.82,4.75-16.87,7.21-3.11,1.52-5.3,2.72-6.63,3.49l-597.64,367a14.89,14.89,0,0,0-4.3,21.3l48.87,69.12A15,15,0,0,0,427,990.63l635.45-275.9a16.19,16.19,0,0,0,1.75-.92c2.52-1.52,6.54-4.3,11.75-8.15a214.06,214.06,0,0,0,25.25-21.76c23.9-24.28,38.24-50.95,38.75-78.66C1140.29,588.62,1135.57,571.67,1125,554.51ZM1080.06,663a185,185,0,0,1-21.76,18.86c-2.58,1.9-5,3.48-7.1,4.88-.86.57-1.18.89-1.62,1.17L426.23,958.51l-32.7-46.43c30.17-18.52,583.32-358.27,583.32-358.27.75-.44,2.43-1.25,4.89-2.44,4.21-2.06,8.88-4.12,14.08-6.06,14.36-5.33,28.82-8.53,42.47-8.72a84.32,84.32,0,0,1,13.38.81c19.74,2.85,35.87,13,48,32.7C1119.31,601.81,1109.78,632.77,1080.06,663Z" fill="#010101" fill-rule="evenodd"/><path d="M419.13,982.83c-21.2-45-29-55.52-97.86-130.79A816.73,816.73,0,0,0,234,769.31c-11.38-9.32-22.48-18-36.07-28.28-.41-.31-24.35-18.22-30.49-22.92a14.59,14.59,0,0,0-6.63-2.79,15.14,15.14,0,0,0-7.33.58C65.18,746.45,0,848.08,0,938.27a204.07,204.07,0,0,0,204.33,204.32c83.36,0,186-68,215.27-148.36a14.5,14.5,0,0,0,.93-5.7A15,15,0,0,0,419.13,982.83Zm-214.8,130A174.47,174.47,0,0,1,29.79,938.27c0-75.59,54.36-161.9,126.6-191.07,9.47,7.13,23.4,17.52,23.62,17.69,13.29,10,24.11,18.43,35.14,27.46a788.51,788.51,0,0,1,84.13,79.82c63.09,69,72.43,81.2,89.72,117.18C361.37,1055.39,273.58,1112.81,204.33,1112.81Z" fill="#010101" fill-rule="evenodd"/></g></g></svg>