<svg xmlns="http://www.w3.org/2000/svg" viewBox="0 0 24 24" fill="#0984e3">
    <path d="M12 0C5.373 0 0 5.373 0 12s5.373 12 12 12 12-5.373 12-12S18.627 0 12 0zm1 16.947V19h-2v-2.053c-2.28-.252-4-1.32-4-2.447h2c0 .44 1.342 1.5 3 1.5s3-1.06 3-1.5h2c0 1.127-1.72 2.195-4 2.447zM6.31 12.4L4 11.697V9.303L6.31 8.6c.325-.982.858-1.86 1.548-2.595L6.634 4.78l1.696-1.696 1.225 1.224c.735-.69 1.613-1.223 2.595-1.548L12.697 1h2.606l.747 2.31c.982.325 1.86.858 2.595 1.548l1.225-1.224 1.696 1.696-1.224 1.225c.69.735 1.223 1.613 1.548 2.595l2.31.747v2.606l-2.31.747c-.325.982-.858 1.86-1.548 2.595l1.224 1.225-1.696 1.696-1.225-1.224c-.735.69-1.613 1.223-2.595 1.548L14.303 19h-2.606l-.747-2.31c-.982-.325-1.86-.858-2.595-1.548L7.13 16.366 5.434 14.67l1.224-1.225c-.69-.735-1.223-1.613-1.548-2.595z"/>
</svg> 